<svg width="800" height="400" viewBox="0 0 800 400" xmlns="http://www.w3.org/2000/svg">
  <g fill="#FFFFFF" fill-opacity="0.2">
    <circle cx="100" cy="50" r="2" />
    <circle cx="150" cy="70" r="2" />
    <circle cx="200" cy="40" r="2" />
    <circle cx="250" cy="90" r="2" />
    <circle cx="300" cy="60" r="2" />
    <circle cx="350" cy="80" r="2" />
    <circle cx="400" cy="50" r="2" />
    <circle cx="450" cy="70" r="2" />
    <circle cx="500" cy="40" r="2" />
    <circle cx="550" cy="90" r="2" />
    <circle cx="600" cy="60" r="2" />
    <circle cx="650" cy="80" r="2" />
    <circle cx="700" cy="50" r="2" />
    <circle cx="750" cy="70" r="2" />
    
    <circle cx="125" cy="100" r="2" />
    <circle cx="175" cy="120" r="2" />
    <circle cx="225" cy="90" r="2" />
    <circle cx="275" cy="140" r="2" />
    <circle cx="325" cy="110" r="2" />
    <circle cx="375" cy="130" r="2" />
    <circle cx="425" cy="100" r="2" />
    <circle cx="475" cy="120" r="2" />
    <circle cx="525" cy="90" r="2" />
    <circle cx="575" cy="140" r="2" />
    <circle cx="625" cy="110" r="2" />
    <circle cx="675" cy="130" r="2" />
    <circle cx="725" cy="100" r="2" />
    <circle cx="775" cy="120" r="2" />
    
    <circle cx="100" cy="150" r="2" />
    <circle cx="150" cy="170" r="2" />
    <circle cx="200" cy="140" r="2" />
    <circle cx="250" cy="190" r="2" />
    <circle cx="300" cy="160" r="2" />
    <circle cx="350" cy="180" r="2" />
    <circle cx="400" cy="150" r="2" />
    <circle cx="450" cy="170" r="2" />
    <circle cx="500" cy="140" r="2" />
    <circle cx="550" cy="190" r="2" />
    <circle cx="600" cy="160" r="2" />
    <circle cx="650" cy="180" r="2" />
    <circle cx="700" cy="150" r="2" />
    <circle cx="750" cy="170" r="2" />
    
    <circle cx="125" cy="200" r="2" />
    <circle cx="175" cy="220" r="2" />
    <circle cx="225" cy="190" r="2" />
    <circle cx="275" cy="240" r="2" />
    <circle cx="325" cy="210" r="2" />
    <circle cx="375" cy="230" r="2" />
    <circle cx="425" cy="200" r="2" />
    <circle cx="475" cy="220" r="2" />
    <circle cx="525" cy="190" r="2" />
    <circle cx="575" cy="240" r="2" />
    <circle cx="625" cy="210" r="2" />
    <circle cx="675" cy="230" r="2" />
    <circle cx="725" cy="200" r="2" />
    <circle cx="775" cy="220" r="2" />
    
    <circle cx="100" cy="250" r="2" />
    <circle cx="150" cy="270" r="2" />
    <circle cx="200" cy="240" r="2" />
    <circle cx="250" cy="290" r="2" />
    <circle cx="300" cy="260" r="2" />
    <circle cx="350" cy="280" r="2" />
    <circle cx="400" cy="250" r="2" />
    <circle cx="450" cy="270" r="2" />
    <circle cx="500" cy="240" r="2" />
    <circle cx="550" cy="290" r="2" />
    <circle cx="600" cy="260" r="2" />
    <circle cx="650" cy="280" r="2" />
    <circle cx="700" cy="250" r="2" />
    <circle cx="750" cy="270" r="2" />
    
    <circle cx="125" cy="300" r="2" />
    <circle cx="175" cy="320" r="2" />
    <circle cx="225" cy="290" r="2" />
    <circle cx="275" cy="340" r="2" />
    <circle cx="325" cy="310" r="2" />
    <circle cx="375" cy="330" r="2" />
    <circle cx="425" cy="300" r="2" />
    <circle cx="475" cy="320" r="2" />
    <circle cx="525" cy="290" r="2" />
    <circle cx="575" cy="340" r="2" />
    <circle cx="625" cy="310" r="2" />
    <circle cx="675" cy="330" r="2" />
    <circle cx="725" cy="300" r="2" />
    <circle cx="775" cy="320" r="2" />
    
    <circle cx="100" cy="350" r="2" />
    <circle cx="150" cy="370" r="2" />
    <circle cx="200" cy="340" r="2" />
    <circle cx="250" cy="390" r="2" />
    <circle cx="300" cy="360" r="2" />
    <circle cx="350" cy="380" r="2" />
    <circle cx="400" cy="350" r="2" />
    <circle cx="450" cy="370" r="2" />
    <circle cx="500" cy="340" r="2" />
    <circle cx="550" cy="390" r="2" />
    <circle cx="600" cy="360" r="2" />
    <circle cx="650" cy="380" r="2" />
    <circle cx="700" cy="350" r="2" />
    <circle cx="750" cy="370" r="2" />
  </g>
</svg>
